<svg width="50" height="16" viewBox="0 0 50 16" fill="none" xmlns="http://www.w3.org/2000/svg">
<g clip-path="url(#clip0_9491_124796)">
<mask id="mask0_9491_124796" style="mask-type:luminance" maskUnits="userSpaceOnUse" x="0" y="4" width="50" height="8">
<path d="M0 4H49.9438V11.9208H0V4Z" fill="white"/>
</mask>
<g mask="url(#mask0_9491_124796)">
<path d="M14.0418 4.25347L14.0141 5.40817L14.0079 5.61485L13.9059 5.43589C13.6569 4.99431 13.3131 4.65173 12.8832 4.41188C12.4624 4.17327 11.9866 4.05198 11.4691 4.05198C10.8166 4.05198 10.2178 4.22772 9.69084 4.57178C9.16188 4.91832 8.73292 5.39183 8.41485 5.97946C8.10792 6.56609 7.95173 7.2453 7.95173 7.99653C7.95173 8.74777 8.09777 9.41559 8.38713 10.0032C8.67525 10.5795 9.0797 11.0426 9.58787 11.379C10.1045 11.7042 10.6983 11.8698 11.3507 11.8698C12.5106 11.8698 13.3698 11.4047 13.9069 10.4856L14.0079 10.3129L14.0141 10.5134L14.0418 11.6619H15.7101V4.25322H14.0418V4.25347ZM13.4708 9.66733C13.0683 10.1099 12.5394 10.3332 11.8983 10.3332C11.2572 10.3332 10.724 10.1099 10.3116 9.66832C9.90495 9.22178 9.70743 8.6651 9.70743 7.96733C9.70743 7.26955 9.91114 6.69554 10.3114 6.26634C10.723 5.82475 11.2569 5.6005 11.898 5.6005C12.5394 5.6005 13.0683 5.82475 13.4708 6.26634C13.871 6.69653 14.0738 7.26881 14.0738 7.96733C14.0738 8.66609 13.8708 9.22797 13.4708 9.66733ZM21.5005 4.27871L21.3495 5.91287C21.0657 5.8113 20.7667 5.75873 20.4653 5.75743C19.8653 5.75743 19.396 5.98094 19.0698 6.41832C18.7468 6.84109 18.5842 7.45149 18.5842 8.23267V11.6604H16.8317V4.25619H18.5111L18.5245 5.69777L18.5277 6.01386L18.6356 5.71634C18.8188 5.21634 19.0906 4.82525 19.4475 4.55668C19.8015 4.2797 20.2183 4.13787 20.6876 4.13787C20.8421 4.13787 20.9985 4.15322 21.1517 4.18094C21.2948 4.20668 21.4111 4.2396 21.5017 4.27871H21.5005ZM29.627 4.25916L26.7218 11.6609H24.8624L21.9564 4.25916H23.9248L25.802 9.85941L25.8287 9.9396L25.8554 9.85941L27.7777 4.25916H29.627ZM35.62 4.25248L35.5871 5.40817L35.5829 5.61485L35.4809 5.43589C35.2309 4.99431 34.8874 4.65173 34.4582 4.41188C34.0371 4.17327 33.5619 4.05198 33.0443 4.05198C32.3908 4.05198 31.7928 4.22772 31.2658 4.57178C30.7371 4.91832 30.3069 5.39183 29.9899 5.97946C29.6822 6.56609 29.5257 7.2453 29.5257 7.99653C29.5257 8.74777 29.673 9.41658 29.9611 10.0032C30.2493 10.5795 30.6547 11.0426 31.1631 11.379C31.6797 11.7042 32.2723 11.8698 32.9257 11.8698C34.0847 11.8698 34.9448 11.4047 35.48 10.4856L35.5819 10.3129L35.5859 10.5134L35.6158 11.6619H37.2829L37.2861 4.2547H35.6191L35.62 4.25272V4.25248ZM35.0426 9.66634C34.6413 10.1089 34.1124 10.3322 33.4703 10.3322C32.828 10.3322 32.296 10.1089 31.8834 9.66733C31.477 9.22079 31.2804 8.66411 31.2804 7.96634C31.2804 7.26856 31.4832 6.69431 31.8834 6.26535C32.2951 5.82376 32.8292 5.5995 33.4703 5.5995C34.1114 5.5995 34.6413 5.82376 35.0426 6.26535C35.4431 6.69554 35.6458 7.26782 35.6458 7.96634C35.6458 8.6651 35.4431 9.22698 35.0426 9.66634ZM49.9438 7.18267V11.6604H48.1985V7.52302C48.1985 6.24084 47.6973 5.59059 46.7084 5.59059C46.1814 5.59059 45.7636 5.77673 45.4673 6.14307C45.1844 6.49703 45.0413 7.00644 45.0413 7.65693V11.6609H43.3094V7.50891C43.3094 6.23589 42.8134 5.59059 41.8347 5.59059C41.3067 5.59059 40.8889 5.77698 40.5936 6.14332C40.3002 6.49629 40.1532 7.00569 40.1532 7.65718V11.6609H38.4213V4.25396H40.0955L40.1089 5.33861L40.1119 5.57946L40.2168 5.36337C40.4112 4.95938 40.7224 4.62307 41.1102 4.39802C41.5042 4.16757 41.9653 4.05124 42.4839 4.05124C43.5953 4.05124 44.3621 4.54109 44.7644 5.50743L44.8158 5.62995L44.8693 5.50941C45.071 5.05891 45.3911 4.6995 45.8223 4.44134C46.2535 4.18069 46.7453 4.05124 47.2847 4.05124C48.1399 4.05124 48.8005 4.32302 49.2502 4.85817C49.7101 5.38589 49.9438 6.16906 49.9438 7.18267ZM7.41658 9.45421C7.41658 10.3391 7.00594 11.0037 6.19629 11.428C5.41881 11.8354 4.46807 11.9208 3.80619 11.9208C2.52401 11.9208 1.5495 11.6757 0.910396 11.1921C0.318069 10.7436 0.0123762 10.0931 0.000990099 9.2599V9.23416L0 9.18243H1.81931L1.82153 9.23193V9.25545C1.86064 10.1312 2.58292 10.6139 3.85792 10.6139C4.38069 10.6139 5.59505 10.5161 5.59505 9.60941C5.59505 8.87772 4.60421 8.73985 3.45767 8.57847C1.91931 8.36312 0.17599 8.11832 0.17599 6.35347C0.175743 4.85842 1.38713 4 3.49752 4C5.75545 4 7.02426 4.83243 7.16931 6.40792L7.17129 6.43589L7.17649 6.49233H5.35396L5.35 6.4453L5.34777 6.42252C5.29827 5.88317 4.80569 5.30693 3.56955 5.30693C2.51584 5.30693 1.93639 5.63837 1.93639 6.2401C1.93639 6.91015 2.89431 7.02748 4.00495 7.16436C4.76337 7.25693 5.62252 7.36312 6.27822 7.67277C7.04381 8.0349 7.41658 8.61832 7.41658 9.45421Z" fill="black"/>
</g>
</g>
<defs>
<clipPath id="clip0_9491_124796">
<rect width="50" height="7.92079" fill="white" transform="translate(0 4)"/>
</clipPath>
</defs>
</svg>
