<svg width="144" height="17" viewBox="0 0 144 17" fill="none" xmlns="http://www.w3.org/2000/svg">
<mask id="path-1-outside-1_9491_124749" maskUnits="userSpaceOnUse" x="20" y="4.5" width="124" height="8" fill="black">
<rect fill="white" x="20" y="4.5" width="124" height="8"/>
<path d="M20.4705 11.5V4.966H21.5375V10.532H24.4195L24.3425 11.5H20.4705ZM28.2924 4.889C30.2614 4.889 31.6694 6.308 31.6694 8.233C31.6694 10.158 30.2614 11.577 28.2924 11.577C26.3344 11.577 24.9264 10.158 24.9264 8.233C24.9264 6.308 26.3344 4.889 28.2924 4.889ZM28.2924 10.62C29.6344 10.62 30.5584 9.608 30.5584 8.233C30.5584 6.88 29.6344 5.846 28.2924 5.846C26.9614 5.846 26.0374 6.858 26.0374 8.233C26.0374 9.586 26.9614 10.62 28.2924 10.62ZM38.1823 4.966L35.5753 7.947L38.2813 11.5H36.9723L34.8053 8.695L33.9473 9.652V11.5H32.8803V4.966H33.9473V8.519H33.9913C34.2773 8.134 34.6953 7.584 35.0913 7.111L36.9503 4.966H38.1823ZM45.0182 11.5H43.8742L43.1812 9.685H40.5852L39.8922 11.5H38.8032L41.3002 4.966H42.5212L45.0182 11.5ZM42.8952 8.816L42.1252 6.825C42.0262 6.561 41.9602 6.341 41.9052 6.099H41.8612C41.8062 6.341 41.7402 6.561 41.6412 6.825L40.8602 8.816H42.8952ZM46.0205 11.5V4.966H47.0875V10.532H49.9695L49.8925 11.5H46.0205ZM57.4604 5.241L57.2514 6.187C56.8884 5.978 56.1844 5.835 55.6344 5.835C54.7764 5.835 54.3034 6.154 54.3034 6.704C54.3034 8.013 57.7354 7.375 57.7354 9.63C57.7354 10.829 56.8664 11.577 55.1944 11.577C54.4024 11.577 53.6324 11.401 53.1814 11.159L53.2914 10.158C53.7204 10.411 54.5014 10.631 55.2274 10.631C56.1954 10.631 56.6464 10.312 56.6464 9.729C56.6464 8.376 53.2034 9.047 53.2034 6.792C53.2034 5.67 54.0944 4.889 55.6124 4.889C56.2724 4.889 57.0094 5.01 57.4604 5.241ZM64.1223 11.104C63.6273 11.423 62.9123 11.577 62.1313 11.577C59.9973 11.577 58.5893 10.18 58.5893 8.233C58.5893 6.308 59.9863 4.889 61.9333 4.889C62.8353 4.889 63.4843 5.065 64.0343 5.439L63.6823 6.418C63.2643 6.088 62.6703 5.879 61.9993 5.879C60.6463 5.879 59.6893 6.825 59.6893 8.233C59.6893 9.597 60.7013 10.587 62.1643 10.587C62.9013 10.587 63.6273 10.389 64.0893 10.048L64.1223 11.104ZM70.8393 4.966V11.5H69.7613V8.684H66.4393V11.5H65.3723V4.966H66.4393V7.727H69.7613V4.966H70.8393ZM75.4071 4.889C77.3761 4.889 78.7841 6.308 78.7841 8.233C78.7841 10.158 77.3761 11.577 75.4071 11.577C73.4491 11.577 72.0411 10.158 72.0411 8.233C72.0411 6.308 73.4491 4.889 75.4071 4.889ZM75.4071 10.62C76.7491 10.62 77.6731 9.608 77.6731 8.233C77.6731 6.88 76.7491 5.846 75.4071 5.846C74.0761 5.846 73.1521 6.858 73.1521 8.233C73.1521 9.586 74.0761 10.62 75.4071 10.62ZM82.987 4.889C84.956 4.889 86.364 6.308 86.364 8.233C86.364 10.158 84.956 11.577 82.987 11.577C81.029 11.577 79.621 10.158 79.621 8.233C79.621 6.308 81.029 4.889 82.987 4.889ZM82.987 10.62C84.329 10.62 85.253 9.608 85.253 8.233C85.253 6.88 84.329 5.846 82.987 5.846C81.656 5.846 80.732 6.858 80.732 8.233C80.732 9.586 81.656 10.62 82.987 10.62ZM87.5748 11.5V4.966H88.6418V10.532H91.5238L91.4468 11.5H87.5748ZM98.0137 4.889C99.9827 4.889 101.391 6.308 101.391 8.233C101.391 10.158 99.9827 11.577 98.0137 11.577C96.0557 11.577 94.6477 10.158 94.6477 8.233C94.6477 6.308 96.0557 4.889 98.0137 4.889ZM98.0137 10.62C99.3557 10.62 100.28 9.608 100.28 8.233C100.28 6.88 99.3557 5.846 98.0137 5.846C96.6827 5.846 95.7587 6.858 95.7587 8.233C95.7587 9.586 96.6827 10.62 98.0137 10.62ZM106.76 4.966L106.672 5.923H103.669V7.98H106.243V8.915H103.669V11.5H102.602V4.966H106.76ZM116.113 8.233C116.113 10.191 114.716 11.5 112.472 11.5H110.349V4.966H112.472C114.727 4.966 116.113 6.275 116.113 8.233ZM114.991 8.233C114.991 6.759 114.012 5.879 112.472 5.879H111.405V10.587H112.472C114.023 10.587 114.991 9.707 114.991 8.233ZM121.475 4.966L121.387 5.923H118.384V7.738H120.881V8.673H118.384V10.543H121.53V11.5H117.317V4.966H121.475ZM126.72 5.241L126.511 6.187C126.148 5.978 125.444 5.835 124.894 5.835C124.036 5.835 123.563 6.154 123.563 6.704C123.563 8.013 126.995 7.375 126.995 9.63C126.995 10.829 126.126 11.577 124.454 11.577C123.662 11.577 122.892 11.401 122.441 11.159L122.551 10.158C122.98 10.411 123.761 10.631 124.487 10.631C125.455 10.631 125.906 10.312 125.906 9.729C125.906 8.376 122.463 9.047 122.463 6.792C122.463 5.67 123.354 4.889 124.872 4.889C125.532 4.889 126.269 5.01 126.72 5.241ZM129.29 4.966V11.5H128.223V4.966H129.29ZM136.119 5.439L135.767 6.418C135.349 6.088 134.711 5.879 133.985 5.879C132.61 5.879 131.598 6.77 131.598 8.233C131.598 9.597 132.61 10.587 134.073 10.587C134.568 10.587 134.975 10.499 135.25 10.378V8.332L136.317 8.299V11.038C135.767 11.379 134.964 11.577 134.029 11.577C131.906 11.577 130.498 10.18 130.498 8.233C130.498 6.275 131.917 4.889 133.919 4.889C134.876 4.889 135.569 5.065 136.119 5.439ZM143.317 4.966V11.5H142.371L139.39 7.353C139.203 7.1 139.038 6.836 138.917 6.616H138.873V11.5H137.85V4.966H138.895L141.766 8.97C141.953 9.223 142.118 9.476 142.239 9.696H142.283V4.966H143.317Z"/>
</mask>
<path d="M20.4705 11.5V4.966H21.5375V10.532H24.4195L24.3425 11.5H20.4705ZM28.2924 4.889C30.2614 4.889 31.6694 6.308 31.6694 8.233C31.6694 10.158 30.2614 11.577 28.2924 11.577C26.3344 11.577 24.9264 10.158 24.9264 8.233C24.9264 6.308 26.3344 4.889 28.2924 4.889ZM28.2924 10.62C29.6344 10.62 30.5584 9.608 30.5584 8.233C30.5584 6.88 29.6344 5.846 28.2924 5.846C26.9614 5.846 26.0374 6.858 26.0374 8.233C26.0374 9.586 26.9614 10.62 28.2924 10.62ZM38.1823 4.966L35.5753 7.947L38.2813 11.5H36.9723L34.8053 8.695L33.9473 9.652V11.5H32.8803V4.966H33.9473V8.519H33.9913C34.2773 8.134 34.6953 7.584 35.0913 7.111L36.9503 4.966H38.1823ZM45.0182 11.5H43.8742L43.1812 9.685H40.5852L39.8922 11.5H38.8032L41.3002 4.966H42.5212L45.0182 11.5ZM42.8952 8.816L42.1252 6.825C42.0262 6.561 41.9602 6.341 41.9052 6.099H41.8612C41.8062 6.341 41.7402 6.561 41.6412 6.825L40.8602 8.816H42.8952ZM46.0205 11.5V4.966H47.0875V10.532H49.9695L49.8925 11.5H46.0205ZM57.4604 5.241L57.2514 6.187C56.8884 5.978 56.1844 5.835 55.6344 5.835C54.7764 5.835 54.3034 6.154 54.3034 6.704C54.3034 8.013 57.7354 7.375 57.7354 9.63C57.7354 10.829 56.8664 11.577 55.1944 11.577C54.4024 11.577 53.6324 11.401 53.1814 11.159L53.2914 10.158C53.7204 10.411 54.5014 10.631 55.2274 10.631C56.1954 10.631 56.6464 10.312 56.6464 9.729C56.6464 8.376 53.2034 9.047 53.2034 6.792C53.2034 5.67 54.0944 4.889 55.6124 4.889C56.2724 4.889 57.0094 5.01 57.4604 5.241ZM64.1223 11.104C63.6273 11.423 62.9123 11.577 62.1313 11.577C59.9973 11.577 58.5893 10.18 58.5893 8.233C58.5893 6.308 59.9863 4.889 61.9333 4.889C62.8353 4.889 63.4843 5.065 64.0343 5.439L63.6823 6.418C63.2643 6.088 62.6703 5.879 61.9993 5.879C60.6463 5.879 59.6893 6.825 59.6893 8.233C59.6893 9.597 60.7013 10.587 62.1643 10.587C62.9013 10.587 63.6273 10.389 64.0893 10.048L64.1223 11.104ZM70.8393 4.966V11.5H69.7613V8.684H66.4393V11.5H65.3723V4.966H66.4393V7.727H69.7613V4.966H70.8393ZM75.4071 4.889C77.3761 4.889 78.7841 6.308 78.7841 8.233C78.7841 10.158 77.3761 11.577 75.4071 11.577C73.4491 11.577 72.0411 10.158 72.0411 8.233C72.0411 6.308 73.4491 4.889 75.4071 4.889ZM75.4071 10.62C76.7491 10.62 77.6731 9.608 77.6731 8.233C77.6731 6.88 76.7491 5.846 75.4071 5.846C74.0761 5.846 73.1521 6.858 73.1521 8.233C73.1521 9.586 74.0761 10.62 75.4071 10.62ZM82.987 4.889C84.956 4.889 86.364 6.308 86.364 8.233C86.364 10.158 84.956 11.577 82.987 11.577C81.029 11.577 79.621 10.158 79.621 8.233C79.621 6.308 81.029 4.889 82.987 4.889ZM82.987 10.62C84.329 10.62 85.253 9.608 85.253 8.233C85.253 6.88 84.329 5.846 82.987 5.846C81.656 5.846 80.732 6.858 80.732 8.233C80.732 9.586 81.656 10.62 82.987 10.62ZM87.5748 11.5V4.966H88.6418V10.532H91.5238L91.4468 11.5H87.5748ZM98.0137 4.889C99.9827 4.889 101.391 6.308 101.391 8.233C101.391 10.158 99.9827 11.577 98.0137 11.577C96.0557 11.577 94.6477 10.158 94.6477 8.233C94.6477 6.308 96.0557 4.889 98.0137 4.889ZM98.0137 10.62C99.3557 10.62 100.28 9.608 100.28 8.233C100.28 6.88 99.3557 5.846 98.0137 5.846C96.6827 5.846 95.7587 6.858 95.7587 8.233C95.7587 9.586 96.6827 10.62 98.0137 10.62ZM106.76 4.966L106.672 5.923H103.669V7.98H106.243V8.915H103.669V11.5H102.602V4.966H106.76ZM116.113 8.233C116.113 10.191 114.716 11.5 112.472 11.5H110.349V4.966H112.472C114.727 4.966 116.113 6.275 116.113 8.233ZM114.991 8.233C114.991 6.759 114.012 5.879 112.472 5.879H111.405V10.587H112.472C114.023 10.587 114.991 9.707 114.991 8.233ZM121.475 4.966L121.387 5.923H118.384V7.738H120.881V8.673H118.384V10.543H121.53V11.5H117.317V4.966H121.475ZM126.72 5.241L126.511 6.187C126.148 5.978 125.444 5.835 124.894 5.835C124.036 5.835 123.563 6.154 123.563 6.704C123.563 8.013 126.995 7.375 126.995 9.63C126.995 10.829 126.126 11.577 124.454 11.577C123.662 11.577 122.892 11.401 122.441 11.159L122.551 10.158C122.98 10.411 123.761 10.631 124.487 10.631C125.455 10.631 125.906 10.312 125.906 9.729C125.906 8.376 122.463 9.047 122.463 6.792C122.463 5.67 123.354 4.889 124.872 4.889C125.532 4.889 126.269 5.01 126.72 5.241ZM129.29 4.966V11.5H128.223V4.966H129.29ZM136.119 5.439L135.767 6.418C135.349 6.088 134.711 5.879 133.985 5.879C132.61 5.879 131.598 6.77 131.598 8.233C131.598 9.597 132.61 10.587 134.073 10.587C134.568 10.587 134.975 10.499 135.25 10.378V8.332L136.317 8.299V11.038C135.767 11.379 134.964 11.577 134.029 11.577C131.906 11.577 130.498 10.18 130.498 8.233C130.498 6.275 131.917 4.889 133.919 4.889C134.876 4.889 135.569 5.065 136.119 5.439ZM143.317 4.966V11.5H142.371L139.39 7.353C139.203 7.1 139.038 6.836 138.917 6.616H138.873V11.5H137.85V4.966H138.895L141.766 8.97C141.953 9.223 142.118 9.476 142.239 9.696H142.283V4.966H143.317Z" fill="#242424"/>
<path d="M20.4705 11.5H20.3705V11.6H20.4705V11.5ZM20.4705 4.966V4.866H20.3705V4.966H20.4705ZM21.5375 4.966H21.6375V4.866H21.5375V4.966ZM21.5375 10.532H21.4375V10.632H21.5375V10.532ZM24.4195 10.532L24.5192 10.5399L24.5278 10.432H24.4195V10.532ZM24.3425 11.5V11.6H24.4349L24.4422 11.5079L24.3425 11.5ZM20.4705 11.5H20.5705V4.966H20.4705H20.3705V11.5H20.4705ZM20.4705 4.966V5.066H21.5375V4.966V4.866H20.4705V4.966ZM21.5375 4.966H21.4375V10.532H21.5375H21.6375V4.966H21.5375ZM21.5375 10.532V10.632H24.4195V10.532V10.432H21.5375V10.532ZM24.4195 10.532L24.3199 10.5241L24.2429 11.4921L24.3425 11.5L24.4422 11.5079L24.5192 10.5399L24.4195 10.532ZM24.3425 11.5V11.4H20.4705V11.5V11.6H24.3425V11.5ZM28.2924 4.889V4.989C30.2066 4.989 31.5694 6.36366 31.5694 8.233H31.6694H31.7694C31.7694 6.25234 30.3162 4.789 28.2924 4.789V4.889ZM31.6694 8.233H31.5694C31.5694 10.1023 30.2066 11.477 28.2924 11.477V11.577V11.677C30.3162 11.677 31.7694 10.2137 31.7694 8.233H31.6694ZM28.2924 11.577V11.477C26.3894 11.477 25.0264 10.1026 25.0264 8.233H24.9264H24.8264C24.8264 10.2134 26.2794 11.677 28.2924 11.677V11.577ZM24.9264 8.233H25.0264C25.0264 6.36345 26.3894 4.989 28.2924 4.989V4.889V4.789C26.2794 4.789 24.8264 6.25255 24.8264 8.233H24.9264ZM28.2924 10.62V10.72C29.6955 10.72 30.6584 9.65716 30.6584 8.233H30.5584H30.4584C30.4584 9.55884 29.5733 10.52 28.2924 10.52V10.62ZM30.5584 8.233H30.6584C30.6584 6.83147 29.6961 5.746 28.2924 5.746V5.846V5.946C29.5727 5.946 30.4584 6.92853 30.4584 8.233H30.5584ZM28.2924 5.846V5.746C26.9 5.746 25.9374 6.80918 25.9374 8.233H26.0374H26.1374C26.1374 6.90682 27.0229 5.946 28.2924 5.946V5.846ZM26.0374 8.233H25.9374C25.9374 9.63419 26.8994 10.72 28.2924 10.72V10.62V10.52C27.0234 10.52 26.1374 9.53781 26.1374 8.233H26.0374ZM38.1823 4.966L38.2576 5.03183L38.4026 4.866H38.1823V4.966ZM35.5753 7.947L35.5 7.88117L35.4463 7.94263L35.4958 8.00759L35.5753 7.947ZM38.2813 11.5V11.6H38.4832L38.3609 11.4394L38.2813 11.5ZM36.9723 11.5L36.8932 11.5611L36.9232 11.6H36.9723V11.5ZM34.8053 8.695L34.8844 8.63386L34.811 8.53883L34.7309 8.62825L34.8053 8.695ZM33.9473 9.652L33.8729 9.58525L33.8473 9.61374V9.652H33.9473ZM33.9473 11.5V11.6H34.0473V11.5H33.9473ZM32.8803 11.5H32.7803V11.6H32.8803V11.5ZM32.8803 4.966V4.866H32.7803V4.966H32.8803ZM33.9473 4.966H34.0473V4.866H33.9473V4.966ZM33.9473 8.519H33.8473V8.619H33.9473V8.519ZM33.9913 8.519V8.619H34.0416L34.0716 8.57863L33.9913 8.519ZM35.0913 7.111L35.0157 7.0455L35.0146 7.04681L35.0913 7.111ZM36.9503 4.966V4.866H36.9046L36.8747 4.90051L36.9503 4.966ZM38.1823 4.966L38.107 4.90017L35.5 7.88117L35.5753 7.947L35.6506 8.01283L38.2576 5.03183L38.1823 4.966ZM35.5753 7.947L35.4958 8.00759L38.2018 11.5606L38.2813 11.5L38.3609 11.4394L35.6549 7.88641L35.5753 7.947ZM38.2813 11.5V11.4H36.9723V11.5V11.6H38.2813V11.5ZM36.9723 11.5L37.0514 11.4389L34.8844 8.63386L34.8053 8.695L34.7262 8.75614L36.8932 11.5611L36.9723 11.5ZM34.8053 8.695L34.7309 8.62825L33.8729 9.58525L33.9473 9.652L34.0218 9.71875L34.8798 8.76175L34.8053 8.695ZM33.9473 9.652H33.8473V11.5H33.9473H34.0473V9.652H33.9473ZM33.9473 11.5V11.4H32.8803V11.5V11.6H33.9473V11.5ZM32.8803 11.5H32.9803V4.966H32.8803H32.7803V11.5H32.8803ZM32.8803 4.966V5.066H33.9473V4.966V4.866H32.8803V4.966ZM33.9473 4.966H33.8473V8.519H33.9473H34.0473V4.966H33.9473ZM33.9473 8.519V8.619H33.9913V8.519V8.419H33.9473V8.519ZM33.9913 8.519L34.0716 8.57863C34.3572 8.19415 34.7738 7.64597 35.168 7.17519L35.0913 7.111L35.0146 7.04681C34.6168 7.52203 34.1974 8.07385 33.911 8.45937L33.9913 8.519ZM35.0913 7.111L35.1669 7.17649L37.0259 5.03149L36.9503 4.966L36.8747 4.90051L35.0157 7.04551L35.0913 7.111ZM36.9503 4.966V5.066H38.1823V4.966V4.866H36.9503V4.966ZM45.0182 11.5V11.6H45.1635L45.1116 11.4643L45.0182 11.5ZM43.8742 11.5L43.7808 11.5357L43.8054 11.6H43.8742V11.5ZM43.1812 9.685L43.2747 9.64933L43.2501 9.585H43.1812V9.685ZM40.5852 9.685V9.585H40.5164L40.4918 9.64933L40.5852 9.685ZM39.8922 11.5V11.6H39.9611L39.9857 11.5357L39.8922 11.5ZM38.8032 11.5L38.7098 11.4643L38.658 11.6H38.8032V11.5ZM41.3002 4.966V4.866H41.2314L41.2068 4.9303L41.3002 4.966ZM42.5212 4.966L42.6146 4.9303L42.5901 4.866H42.5212V4.966ZM42.8952 8.816V8.916H43.0411L42.9885 8.77993L42.8952 8.816ZM42.1252 6.825L42.0316 6.86011L42.032 6.86107L42.1252 6.825ZM41.9052 6.099L42.0027 6.07684L41.9851 5.999H41.9052V6.099ZM41.8612 6.099V5.999H41.7814L41.7637 6.07684L41.8612 6.099ZM41.6412 6.825L41.7343 6.86152L41.7349 6.86011L41.6412 6.825ZM40.8602 8.816L40.7671 8.77948L40.7136 8.916H40.8602V8.816ZM45.0182 11.5V11.4H43.8742V11.5V11.6H45.0182V11.5ZM43.8742 11.5L43.9677 11.4643L43.2747 9.64933L43.1812 9.685L43.0878 9.72067L43.7808 11.5357L43.8742 11.5ZM43.1812 9.685V9.585H40.5852V9.685V9.785H43.1812V9.685ZM40.5852 9.685L40.4918 9.64933L39.7988 11.4643L39.8922 11.5L39.9857 11.5357L40.6787 9.72067L40.5852 9.685ZM39.8922 11.5V11.4H38.8032V11.5V11.6H39.8922V11.5ZM38.8032 11.5L38.8966 11.5357L41.3936 5.0017L41.3002 4.966L41.2068 4.9303L38.7098 11.4643L38.8032 11.5ZM41.3002 4.966V5.066H42.5212V4.966V4.866H41.3002V4.966ZM42.5212 4.966L42.4278 5.0017L44.9248 11.5357L45.0182 11.5L45.1116 11.4643L42.6146 4.9303L42.5212 4.966ZM42.8952 8.816L42.9885 8.77993L42.2185 6.78893L42.1252 6.825L42.032 6.86107L42.802 8.85207L42.8952 8.816ZM42.1252 6.825L42.2189 6.78989C42.1213 6.5298 42.0567 6.31412 42.0027 6.07684L41.9052 6.099L41.8077 6.12116C41.8638 6.36788 41.9311 6.5922 42.0316 6.86011L42.1252 6.825ZM41.9052 6.099V5.999H41.8612V6.099V6.199H41.9052V6.099ZM41.8612 6.099L41.7637 6.07684C41.7098 6.31412 41.6451 6.5298 41.5476 6.78989L41.6412 6.825L41.7349 6.86011C41.8353 6.5922 41.9027 6.36788 41.9587 6.12116L41.8612 6.099ZM41.6412 6.825L41.5481 6.78848L40.7671 8.77948L40.8602 8.816L40.9533 8.85252L41.7343 6.86152L41.6412 6.825ZM40.8602 8.816V8.916H42.8952V8.816V8.716H40.8602V8.816ZM46.0205 11.5H45.9205V11.6H46.0205V11.5ZM46.0205 4.966V4.866H45.9205V4.966H46.0205ZM47.0875 4.966H47.1875V4.866H47.0875V4.966ZM47.0875 10.532H46.9875V10.632H47.0875V10.532ZM49.9695 10.532L50.0692 10.5399L50.0778 10.432H49.9695V10.532ZM49.8925 11.5V11.6H49.9849L49.9922 11.5079L49.8925 11.5ZM46.0205 11.5H46.1205V4.966H46.0205H45.9205V11.5H46.0205ZM46.0205 4.966V5.066H47.0875V4.966V4.866H46.0205V4.966ZM47.0875 4.966H46.9875V10.532H47.0875H47.1875V4.966H47.0875ZM47.0875 10.532V10.632H49.9695V10.532V10.432H47.0875V10.532ZM49.9695 10.532L49.8699 10.5241L49.7929 11.4921L49.8925 11.5L49.9922 11.5079L50.0692 10.5399L49.9695 10.532ZM49.8925 11.5V11.4H46.0205V11.5V11.6H49.8925V11.5ZM57.4604 5.241L57.5581 5.26257L57.5747 5.18719L57.506 5.152L57.4604 5.241ZM57.2514 6.187L57.2015 6.27366L57.3197 6.34168L57.3491 6.20857L57.2514 6.187ZM53.1814 11.159L53.082 11.1481L53.0746 11.2152L53.1341 11.2471L53.1814 11.159ZM53.2914 10.158L53.3422 10.0719L53.2089 9.99325L53.192 10.1471L53.2914 10.158ZM57.4604 5.241L57.3628 5.21943L57.1538 6.16543L57.2514 6.187L57.3491 6.20857L57.5581 5.26257L57.4604 5.241ZM57.2514 6.187L57.3013 6.10034C57.1069 5.98839 56.8286 5.89768 56.5339 5.83482C56.2378 5.77167 55.9173 5.735 55.6344 5.735V5.835V5.935C55.9016 5.935 56.2081 5.96983 56.4922 6.03043C56.7777 6.09132 57.033 6.17661 57.2015 6.27366L57.2514 6.187ZM55.6344 5.835V5.735C55.1954 5.735 54.8405 5.81623 54.5922 5.97973C54.3385 6.14676 54.2034 6.39541 54.2034 6.704H54.3034H54.4034C54.4034 6.46259 54.5048 6.27674 54.7022 6.14677C54.9049 6.01327 55.2155 5.935 55.6344 5.935V5.835ZM54.3034 6.704H54.2034C54.2034 7.0888 54.4615 7.32045 54.7953 7.48591C55.1253 7.64951 55.5686 7.76737 55.9878 7.90712C56.4155 8.04968 56.828 8.2173 57.1338 8.48126C57.4344 8.74075 57.6354 9.09643 57.6354 9.63H57.7354H57.8354C57.8354 9.03607 57.6074 8.62587 57.2645 8.32987C56.9268 8.03833 56.4813 7.86082 56.051 7.71738C55.6123 7.57113 55.1976 7.46212 54.8841 7.30672C54.5744 7.15318 54.4034 6.9737 54.4034 6.704H54.3034ZM57.7354 9.63H57.6354C57.6354 10.2031 57.4291 10.6592 57.0299 10.9747C56.6275 11.2927 56.0172 11.477 55.1944 11.477V11.577V11.677C56.0436 11.677 56.7039 11.4873 57.1539 11.1316C57.6073 10.7733 57.8354 10.2559 57.8354 9.63H57.7354ZM55.1944 11.577V11.477C54.4136 11.477 53.6611 11.3029 53.2287 11.0709L53.1814 11.159L53.1341 11.2471C53.6037 11.4991 54.3912 11.677 55.1944 11.677V11.577ZM53.1814 11.159L53.2808 11.1699L53.3908 10.1689L53.2914 10.158L53.192 10.1471L53.082 11.1481L53.1814 11.159ZM53.2914 10.158L53.2406 10.2441C53.6869 10.5073 54.4859 10.731 55.2274 10.731V10.631V10.531C54.5169 10.531 53.7539 10.3147 53.3422 10.0719L53.2914 10.158ZM55.2274 10.631V10.731C55.7193 10.731 56.097 10.6505 56.3546 10.4824C56.6194 10.3095 56.7464 10.0508 56.7464 9.729H56.6464H56.5464C56.5464 9.99015 56.448 10.1825 56.2452 10.3149C56.0353 10.452 55.7036 10.531 55.2274 10.531V10.631ZM56.6464 9.729H56.7464C56.7464 9.33463 56.4896 9.09645 56.1534 8.9271C55.8218 8.76003 55.3771 8.64228 54.9562 8.50376C54.5268 8.36248 54.113 8.19753 53.8063 7.93589C53.5049 7.67883 53.3034 7.32539 53.3034 6.792H53.2034H53.1034C53.1034 7.38611 53.3323 7.79442 53.6765 8.08805C54.0153 8.3771 54.4622 8.55177 54.8937 8.69374C55.3335 8.83847 55.7495 8.94759 56.0635 9.10572C56.3728 9.26155 56.5464 9.44687 56.5464 9.729H56.6464ZM53.2034 6.792H53.3034C53.3034 6.25971 53.5137 5.81298 53.9018 5.49733C54.2918 5.18008 54.8697 4.989 55.6124 4.989V4.889V4.789C54.8372 4.789 54.2105 4.98842 53.7756 5.34217C53.3387 5.69752 53.1034 6.20229 53.1034 6.792H53.2034ZM55.6124 4.889V4.989C56.2651 4.989 56.984 5.10931 57.4148 5.33L57.4604 5.241L57.506 5.152C57.0349 4.91069 56.2798 4.789 55.6124 4.789V4.889ZM64.1223 11.104L64.1765 11.1881L64.224 11.1574L64.2223 11.1009L64.1223 11.104ZM64.0343 5.439L64.1284 5.47283L64.1546 5.39989L64.0905 5.35631L64.0343 5.439ZM63.6823 6.418L63.6204 6.49649L63.7294 6.58258L63.7764 6.45183L63.6823 6.418ZM64.0893 10.048L64.1893 10.0449L64.1833 9.85433L64.0299 9.96754L64.0893 10.048ZM64.1223 11.104L64.0681 11.0199C63.5955 11.3246 62.902 11.477 62.1313 11.477V11.577V11.677C62.9226 11.677 63.6592 11.5214 64.1765 11.1881L64.1223 11.104ZM62.1313 11.577V11.477C61.0865 11.477 60.2269 11.1353 59.6292 10.5629C59.0318 9.99069 58.6893 9.18154 58.6893 8.233H58.5893H58.4893C58.4893 9.23146 58.8508 10.0943 59.4909 10.7073C60.1307 11.3202 61.0422 11.677 62.1313 11.677V11.577ZM58.5893 8.233H58.6893C58.6893 6.36279 60.042 4.989 61.9333 4.989V4.889V4.789C59.9307 4.789 58.4893 6.25321 58.4893 8.233H58.5893ZM61.9333 4.889V4.989C62.8213 4.989 63.449 5.16193 63.9781 5.52169L64.0343 5.439L64.0905 5.35631C63.5196 4.96806 62.8494 4.789 61.9333 4.789V4.889ZM64.0343 5.439L63.9402 5.40517L63.5882 6.38417L63.6823 6.418L63.7764 6.45183L64.1284 5.47283L64.0343 5.439ZM63.6823 6.418L63.7443 6.33951C63.3068 5.99415 62.6904 5.779 61.9993 5.779V5.879V5.979C62.6503 5.979 63.2218 6.18185 63.6204 6.49649L63.6823 6.418ZM61.9993 5.879V5.779C61.2989 5.779 60.6949 6.02429 60.2659 6.45765C59.8369 6.89099 59.5893 7.50579 59.5893 8.233H59.6893H59.7893C59.7893 7.55221 60.0203 6.99001 60.408 6.59835C60.7957 6.20671 61.3467 5.979 61.9993 5.979V5.879ZM59.6893 8.233H59.5893C59.5893 8.94064 59.8523 9.55573 60.309 9.99368C60.7654 10.4314 61.4099 10.687 62.1643 10.687V10.587V10.487C61.4558 10.487 60.8627 10.2476 60.4474 9.84932C60.0323 9.45127 59.7893 8.88936 59.7893 8.233H59.6893ZM62.1643 10.587V10.687C62.9157 10.687 63.6646 10.4858 64.1487 10.1285L64.0893 10.048L64.0299 9.96754C63.59 10.2922 62.887 10.487 62.1643 10.487V10.587ZM64.0893 10.048L63.9894 10.0511L64.0224 11.1071L64.1223 11.104L64.2223 11.1009L64.1893 10.0449L64.0893 10.048ZM70.8393 4.966H70.9393V4.866H70.8393V4.966ZM70.8393 11.5V11.6H70.9393V11.5H70.8393ZM69.7613 11.5H69.6613V11.6H69.7613V11.5ZM69.7613 8.684H69.8613V8.584H69.7613V8.684ZM66.4393 8.684V8.584H66.3393V8.684H66.4393ZM66.4393 11.5V11.6H66.5393V11.5H66.4393ZM65.3723 11.5H65.2723V11.6H65.3723V11.5ZM65.3723 4.966V4.866H65.2723V4.966H65.3723ZM66.4393 4.966H66.5393V4.866H66.4393V4.966ZM66.4393 7.727H66.3393V7.827H66.4393V7.727ZM69.7613 7.727V7.827H69.8613V7.727H69.7613ZM69.7613 4.966V4.866H69.6613V4.966H69.7613ZM70.8393 4.966H70.7393V11.5H70.8393H70.9393V4.966H70.8393ZM70.8393 11.5V11.4H69.7613V11.5V11.6H70.8393V11.5ZM69.7613 11.5H69.8613V8.684H69.7613H69.6613V11.5H69.7613ZM69.7613 8.684V8.584H66.4393V8.684V8.784H69.7613V8.684ZM66.4393 8.684H66.3393V11.5H66.4393H66.5393V8.684H66.4393ZM66.4393 11.5V11.4H65.3723V11.5V11.6H66.4393V11.5ZM65.3723 11.5H65.4723V4.966H65.3723H65.2723V11.5H65.3723ZM65.3723 4.966V5.066H66.4393V4.966V4.866H65.3723V4.966ZM66.4393 4.966H66.3393V7.727H66.4393H66.5393V4.966H66.4393ZM66.4393 7.727V7.827H69.7613V7.727V7.627H66.4393V7.727ZM69.7613 7.727H69.8613V4.966H69.7613H69.6613V7.727H69.7613ZM69.7613 4.966V5.066H70.8393V4.966V4.866H69.7613V4.966ZM75.4071 4.889V4.989C77.3213 4.989 78.6841 6.36366 78.6841 8.233H78.7841H78.8841C78.8841 6.25234 77.4309 4.789 75.4071 4.789V4.889ZM78.7841 8.233H78.6841C78.6841 10.1023 77.3213 11.477 75.4071 11.477V11.577V11.677C77.4309 11.677 78.8841 10.2137 78.8841 8.233H78.7841ZM75.4071 11.577V11.477C73.5041 11.477 72.1411 10.1026 72.1411 8.233H72.0411H71.9411C71.9411 10.2134 73.3941 11.677 75.4071 11.677V11.577ZM72.0411 8.233H72.1411C72.1411 6.36345 73.5041 4.989 75.4071 4.989V4.889V4.789C73.3941 4.789 71.9411 6.25255 71.9411 8.233H72.0411ZM75.4071 10.62V10.72C76.8102 10.72 77.7731 9.65716 77.7731 8.233H77.6731H77.5731C77.5731 9.55884 76.688 10.52 75.4071 10.52V10.62ZM77.6731 8.233H77.7731C77.7731 6.83147 76.8108 5.746 75.4071 5.746V5.846V5.946C76.6874 5.946 77.5731 6.92853 77.5731 8.233H77.6731ZM75.4071 5.846V5.746C74.0146 5.746 73.0521 6.80918 73.0521 8.233H73.1521H73.2521C73.2521 6.90682 74.1375 5.946 75.4071 5.946V5.846ZM73.1521 8.233H73.0521C73.0521 9.63419 74.0141 10.72 75.4071 10.72V10.62V10.52C74.1381 10.52 73.2521 9.53781 73.2521 8.233H73.1521ZM82.987 4.889V4.989C84.9012 4.989 86.264 6.36366 86.264 8.233H86.364H86.464C86.464 6.25234 85.0107 4.789 82.987 4.789V4.889ZM86.364 8.233H86.264C86.264 10.1023 84.9012 11.477 82.987 11.477V11.577V11.677C85.0107 11.677 86.464 10.2137 86.464 8.233H86.364ZM82.987 11.577V11.477C81.084 11.477 79.721 10.1026 79.721 8.233H79.621H79.521C79.521 10.2134 80.9739 11.677 82.987 11.677V11.577ZM79.621 8.233H79.721C79.721 6.36345 81.084 4.989 82.987 4.989V4.889V4.789C80.9739 4.789 79.521 6.25255 79.521 8.233H79.621ZM82.987 10.62V10.72C84.3901 10.72 85.353 9.65716 85.353 8.233H85.253H85.153C85.153 9.55884 84.2678 10.52 82.987 10.52V10.62ZM85.253 8.233H85.353C85.353 6.83147 84.3907 5.746 82.987 5.746V5.846V5.946C84.2673 5.946 85.153 6.92853 85.153 8.233H85.253ZM82.987 5.846V5.746C81.5945 5.746 80.632 6.80918 80.632 8.233H80.732H80.832C80.832 6.90682 81.7174 5.946 82.987 5.946V5.846ZM80.732 8.233H80.632C80.632 9.63419 81.5939 10.72 82.987 10.72V10.62V10.52C81.718 10.52 80.832 9.53781 80.832 8.233H80.732ZM87.5748 11.5H87.4748V11.6H87.5748V11.5ZM87.5748 4.966V4.866H87.4748V4.966H87.5748ZM88.6418 4.966H88.7418V4.866H88.6418V4.966ZM88.6418 10.532H88.5418V10.632H88.6418V10.532ZM91.5238 10.532L91.6235 10.5399L91.6321 10.432H91.5238V10.532ZM91.4468 11.5V11.6H91.5392L91.5465 11.5079L91.4468 11.5ZM87.5748 11.5H87.6748V4.966H87.5748H87.4748V11.5H87.5748ZM87.5748 4.966V5.066H88.6418V4.966V4.866H87.5748V4.966ZM88.6418 4.966H88.5418V10.532H88.6418H88.7418V4.966H88.6418ZM88.6418 10.532V10.632H91.5238V10.532V10.432H88.6418V10.532ZM91.5238 10.532L91.4241 10.5241L91.3472 11.4921L91.4468 11.5L91.5465 11.5079L91.6235 10.5399L91.5238 10.532ZM91.4468 11.5V11.4H87.5748V11.5V11.6H91.4468V11.5ZM98.0137 4.889V4.989C99.9279 4.989 101.291 6.36366 101.291 8.233H101.391H101.491C101.491 6.25234 100.038 4.789 98.0137 4.789V4.889ZM101.391 8.233H101.291C101.291 10.1023 99.9279 11.477 98.0137 11.477V11.577V11.677C100.038 11.677 101.491 10.2137 101.491 8.233H101.391ZM98.0137 11.577V11.477C96.1107 11.477 94.7477 10.1026 94.7477 8.233H94.6477H94.5477C94.5477 10.2134 96.0007 11.677 98.0137 11.677V11.577ZM94.6477 8.233H94.7477C94.7477 6.36345 96.1107 4.989 98.0137 4.989V4.889V4.789C96.0007 4.789 94.5477 6.25255 94.5477 8.233H94.6477ZM98.0137 10.62V10.72C99.4168 10.72 100.38 9.65716 100.38 8.233H100.28H100.18C100.18 9.55884 99.2946 10.52 98.0137 10.52V10.62ZM100.28 8.233H100.38C100.38 6.83147 99.4174 5.746 98.0137 5.746V5.846V5.946C99.294 5.946 100.18 6.92853 100.18 8.233H100.28ZM98.0137 5.846V5.746C96.6213 5.746 95.6587 6.80918 95.6587 8.233H95.7587H95.8587C95.8587 6.90682 96.7441 5.946 98.0137 5.946V5.846ZM95.7587 8.233H95.6587C95.6587 9.63419 96.6207 10.72 98.0137 10.72V10.62V10.52C96.7447 10.52 95.8587 9.53781 95.8587 8.233H95.7587ZM106.76 4.966L106.859 4.97516L106.869 4.866H106.76V4.966ZM106.672 5.923V6.023H106.763L106.771 5.93216L106.672 5.923ZM103.669 5.923V5.823H103.569V5.923H103.669ZM103.669 7.98H103.569V8.08H103.669V7.98ZM106.243 7.98H106.343V7.88H106.243V7.98ZM106.243 8.915V9.015H106.343V8.915H106.243ZM103.669 8.915V8.815H103.569V8.915H103.669ZM103.669 11.5V11.6H103.769V11.5H103.669ZM102.602 11.5H102.502V11.6H102.602V11.5ZM102.602 4.966V4.866H102.502V4.966H102.602ZM106.76 4.966L106.66 4.95684L106.572 5.91384L106.672 5.923L106.771 5.93216L106.859 4.97516L106.76 4.966ZM106.672 5.923V5.823H103.669V5.923V6.023H106.672V5.923ZM103.669 5.923H103.569V7.98H103.669H103.769V5.923H103.669ZM103.669 7.98V8.08H106.243V7.98V7.88H103.669V7.98ZM106.243 7.98H106.143V8.915H106.243H106.343V7.98H106.243ZM106.243 8.915V8.815H103.669V8.915V9.015H106.243V8.915ZM103.669 8.915H103.569V11.5H103.669H103.769V8.915H103.669ZM103.669 11.5V11.4H102.602V11.5V11.6H103.669V11.5ZM102.602 11.5H102.702V4.966H102.602H102.502V11.5H102.602ZM102.602 4.966V5.066H106.76V4.966V4.866H102.602V4.966ZM110.349 11.5H110.249V11.6H110.349V11.5ZM110.349 4.966V4.866H110.249V4.966H110.349ZM111.405 5.879V5.779H111.305V5.879H111.405ZM111.405 10.587H111.305V10.687H111.405V10.587ZM116.113 8.233H116.013C116.013 9.18703 115.674 9.97574 115.067 10.5267C114.459 11.0785 113.575 11.4 112.472 11.4V11.5V11.6C113.613 11.6 114.55 11.267 115.201 10.6748C115.854 10.0818 116.213 9.23697 116.213 8.233H116.113ZM112.472 11.5V11.4H110.349V11.5V11.6H112.472V11.5ZM110.349 11.5H110.449V4.966H110.349H110.249V11.5H110.349ZM110.349 4.966V5.066H112.472V4.966V4.866H110.349V4.966ZM112.472 4.966V5.066C113.581 5.066 114.465 5.38751 115.071 5.9392C115.676 6.49007 116.013 7.27874 116.013 8.233H116.113H116.213C116.213 7.22926 115.857 6.38443 115.206 5.7913C114.555 5.19899 113.619 4.866 112.472 4.866V4.966ZM114.991 8.233H115.091C115.091 7.47294 114.838 6.85605 114.377 6.42982C113.917 6.00451 113.261 5.779 112.472 5.779V5.879V5.979C113.224 5.979 113.827 6.19349 114.241 6.57668C114.655 6.95895 114.891 7.51906 114.891 8.233H114.991ZM112.472 5.879V5.779H111.405V5.879V5.979H112.472V5.879ZM111.405 5.879H111.305V10.587H111.405H111.505V5.879H111.405ZM111.405 10.587V10.687H112.472V10.587V10.487H111.405V10.587ZM112.472 10.587V10.687C113.266 10.687 113.923 10.4616 114.381 10.0361C114.841 9.60969 115.091 8.99273 115.091 8.233H114.991H114.891C114.891 8.94727 114.657 9.50731 114.245 9.88943C113.832 10.2724 113.229 10.487 112.472 10.487V10.587ZM121.475 4.966L121.574 4.97516L121.584 4.866H121.475V4.966ZM121.387 5.923V6.023H121.478L121.486 5.93216L121.387 5.923ZM118.384 5.923V5.823H118.284V5.923H118.384ZM118.384 7.738H118.284V7.838H118.384V7.738ZM120.881 7.738H120.981V7.638H120.881V7.738ZM120.881 8.673V8.773H120.981V8.673H120.881ZM118.384 8.673V8.573H118.284V8.673H118.384ZM118.384 10.543H118.284V10.643H118.384V10.543ZM121.53 10.543H121.63V10.443H121.53V10.543ZM121.53 11.5V11.6H121.63V11.5H121.53ZM117.317 11.5H117.217V11.6H117.317V11.5ZM117.317 4.966V4.866H117.217V4.966H117.317ZM121.475 4.966L121.375 4.95684L121.287 5.91384L121.387 5.923L121.486 5.93216L121.574 4.97516L121.475 4.966ZM121.387 5.923V5.823H118.384V5.923V6.023H121.387V5.923ZM118.384 5.923H118.284V7.738H118.384H118.484V5.923H118.384ZM118.384 7.738V7.838H120.881V7.738V7.638H118.384V7.738ZM120.881 7.738H120.781V8.673H120.881H120.981V7.738H120.881ZM120.881 8.673V8.573H118.384V8.673V8.773H120.881V8.673ZM118.384 8.673H118.284V10.543H118.384H118.484V8.673H118.384ZM118.384 10.543V10.643H121.53V10.543V10.443H118.384V10.543ZM121.53 10.543H121.43V11.5H121.53H121.63V10.543H121.53ZM121.53 11.5V11.4H117.317V11.5V11.6H121.53V11.5ZM117.317 11.5H117.417V4.966H117.317H117.217V11.5H117.317ZM117.317 4.966V5.066H121.475V4.966V4.866H117.317V4.966ZM126.72 5.241L126.817 5.26257L126.834 5.18719L126.765 5.152L126.72 5.241ZM126.511 6.187L126.461 6.27366L126.579 6.34168L126.608 6.20857L126.511 6.187ZM122.441 11.159L122.341 11.1481L122.334 11.2152L122.394 11.2471L122.441 11.159ZM122.551 10.158L122.602 10.0719L122.468 9.99325L122.451 10.1471L122.551 10.158ZM126.72 5.241L126.622 5.21943L126.413 6.16543L126.511 6.187L126.608 6.20857L126.817 5.26257L126.72 5.241ZM126.511 6.187L126.561 6.10034C126.366 5.98839 126.088 5.89768 125.793 5.83482C125.497 5.77167 125.177 5.735 124.894 5.735V5.835V5.935C125.161 5.935 125.467 5.96983 125.752 6.03043C126.037 6.09132 126.292 6.17661 126.461 6.27366L126.511 6.187ZM124.894 5.835V5.735C124.455 5.735 124.1 5.81623 123.852 5.97973C123.598 6.14676 123.463 6.39541 123.463 6.704H123.563H123.663C123.663 6.46259 123.764 6.27674 123.962 6.14677C124.164 6.01327 124.475 5.935 124.894 5.935V5.835ZM123.563 6.704H123.463C123.463 7.0888 123.721 7.32045 124.055 7.48591C124.385 7.64951 124.828 7.76737 125.247 7.90712C125.675 8.04968 126.087 8.2173 126.393 8.48126C126.694 8.74075 126.895 9.09643 126.895 9.63H126.995H127.095C127.095 9.03607 126.867 8.62587 126.524 8.32987C126.186 8.03833 125.741 7.86082 125.31 7.71738C124.872 7.57113 124.457 7.46212 124.143 7.30672C123.834 7.15318 123.663 6.9737 123.663 6.704H123.563ZM126.995 9.63H126.895C126.895 10.2031 126.688 10.6592 126.289 10.9747C125.887 11.2927 125.277 11.477 124.454 11.477V11.577V11.677C125.303 11.677 125.963 11.4873 126.413 11.1316C126.867 10.7733 127.095 10.2559 127.095 9.63H126.995ZM124.454 11.577V11.477C123.673 11.477 122.92 11.3029 122.488 11.0709L122.441 11.159L122.394 11.2471C122.863 11.4991 123.651 11.677 124.454 11.677V11.577ZM122.441 11.159L122.54 11.1699L122.65 10.1689L122.551 10.158L122.451 10.1471L122.341 11.1481L122.441 11.159ZM122.551 10.158L122.5 10.2441C122.946 10.5073 123.745 10.731 124.487 10.731V10.631V10.531C123.776 10.531 123.013 10.3147 122.602 10.0719L122.551 10.158ZM124.487 10.631V10.731C124.979 10.731 125.356 10.6505 125.614 10.4824C125.879 10.3095 126.006 10.0508 126.006 9.729H125.906H125.806C125.806 9.99015 125.707 10.1825 125.505 10.3149C125.295 10.452 124.963 10.531 124.487 10.531V10.631ZM125.906 9.729H126.006C126.006 9.33463 125.749 9.09645 125.413 8.9271C125.081 8.76003 124.636 8.64228 124.216 8.50376C123.786 8.36248 123.372 8.19753 123.066 7.93589C122.764 7.67883 122.563 7.32539 122.563 6.792H122.463H122.363C122.363 7.38611 122.592 7.79442 122.936 8.08805C123.275 8.3771 123.722 8.55177 124.153 8.69374C124.593 8.83847 125.009 8.94759 125.323 9.10572C125.632 9.26155 125.806 9.44687 125.806 9.729H125.906ZM122.463 6.792H122.563C122.563 6.25971 122.773 5.81298 123.161 5.49733C123.551 5.18008 124.129 4.989 124.872 4.989V4.889V4.789C124.097 4.789 123.47 4.98842 123.035 5.34217C122.598 5.69752 122.363 6.20229 122.363 6.792H122.463ZM124.872 4.889V4.989C125.524 4.989 126.243 5.10931 126.674 5.33L126.72 5.241L126.765 5.152C126.294 4.91069 125.539 4.789 124.872 4.789V4.889ZM129.29 4.966H129.39V4.866H129.29V4.966ZM129.29 11.5V11.6H129.39V11.5H129.29ZM128.223 11.5H128.123V11.6H128.223V11.5ZM128.223 4.966V4.866H128.123V4.966H128.223ZM129.29 4.966H129.19V11.5H129.29H129.39V4.966H129.29ZM129.29 11.5V11.4H128.223V11.5V11.6H129.29V11.5ZM128.223 11.5H128.323V4.966H128.223H128.123V11.5H128.223ZM128.223 4.966V5.066H129.29V4.966V4.866H128.223V4.966ZM136.119 5.439L136.213 5.47283L136.239 5.39989L136.175 5.35631L136.119 5.439ZM135.767 6.418L135.705 6.49649L135.814 6.58258L135.861 6.45183L135.767 6.418ZM135.25 10.378L135.29 10.4695L135.35 10.4433V10.378H135.25ZM135.25 8.332L135.247 8.23205L135.15 8.23504V8.332H135.25ZM136.317 8.299H136.417V8.19586L136.314 8.19905L136.317 8.299ZM136.317 11.038L136.37 11.123L136.417 11.0937V11.038H136.317ZM136.119 5.439L136.025 5.40517L135.673 6.38417L135.767 6.418L135.861 6.45183L136.213 5.47283L136.119 5.439ZM135.767 6.418L135.829 6.33951C135.39 5.99272 134.728 5.779 133.985 5.779V5.879V5.979C134.694 5.979 135.308 6.18328 135.705 6.49649L135.767 6.418ZM133.985 5.879V5.779C133.276 5.779 132.653 6.00902 132.207 6.43504C131.76 6.86167 131.498 7.47742 131.498 8.233H131.598H131.698C131.698 7.52558 131.942 6.96433 132.345 6.5797C132.748 6.19448 133.319 5.979 133.985 5.979V5.879ZM131.598 8.233H131.498C131.498 8.94064 131.761 9.55573 132.218 9.99368C132.674 10.4314 133.318 10.687 134.073 10.687V10.587V10.487C133.364 10.487 132.771 10.2476 132.356 9.84932C131.941 9.45127 131.698 8.88936 131.698 8.233H131.598ZM134.073 10.587V10.687C134.579 10.687 135 10.5973 135.29 10.4695L135.25 10.378L135.21 10.2865C134.95 10.4007 134.557 10.487 134.073 10.487V10.587ZM135.25 10.378H135.35V8.332H135.25H135.15V10.378H135.25ZM135.25 8.332L135.253 8.43195L136.32 8.39895L136.317 8.299L136.314 8.19905L135.247 8.23205L135.25 8.332ZM136.317 8.299H136.217V11.038H136.317H136.417V8.299H136.317ZM136.317 11.038L136.264 10.953C135.735 11.2813 134.952 11.477 134.029 11.477V11.577V11.677C134.976 11.677 135.799 11.4767 136.37 11.123L136.317 11.038ZM134.029 11.577V11.477C132.99 11.477 132.133 11.1354 131.537 10.563C130.94 9.99074 130.598 9.18155 130.598 8.233H130.498H130.398C130.398 9.23145 130.759 10.0943 131.398 10.7073C132.036 11.3201 132.945 11.677 134.029 11.677V11.577ZM130.498 8.233H130.598C130.598 7.27897 130.943 6.46938 131.528 5.89827C132.112 5.327 132.941 4.989 133.919 4.989V4.889V4.789C132.894 4.789 132.013 5.144 131.388 5.75523C130.762 6.36662 130.398 7.22903 130.398 8.233H130.498ZM133.919 4.889V4.989C134.864 4.989 135.535 5.16275 136.063 5.52169L136.119 5.439L136.175 5.35631C135.603 4.96725 134.888 4.789 133.919 4.789V4.889ZM143.317 4.966H143.417V4.866H143.317V4.966ZM143.317 11.5V11.6H143.417V11.5H143.317ZM142.371 11.5L142.29 11.5584L142.32 11.6H142.371V11.5ZM139.39 7.353L139.471 7.29463L139.471 7.29356L139.39 7.353ZM138.917 6.616L139.005 6.56781L138.976 6.516H138.917V6.616ZM138.873 6.616V6.516H138.773V6.616H138.873ZM138.873 11.5V11.6H138.973V11.5H138.873ZM137.85 11.5H137.75V11.6H137.85V11.5ZM137.85 4.966V4.866H137.75V4.966H137.85ZM138.895 4.966L138.976 4.90773L138.947 4.866H138.895V4.966ZM141.766 8.97L141.685 9.02828L141.686 9.02944L141.766 8.97ZM142.239 9.696L142.152 9.74419L142.18 9.796H142.239V9.696ZM142.283 9.696V9.796H142.383V9.696H142.283ZM142.283 4.966V4.866H142.183V4.966H142.283ZM143.317 4.966H143.217V11.5H143.317H143.417V4.966H143.317ZM143.317 11.5V11.4H142.371V11.5V11.6H143.317V11.5ZM142.371 11.5L142.452 11.4416L139.471 7.29463L139.39 7.353L139.309 7.41137L142.29 11.5584L142.371 11.5ZM139.39 7.353L139.471 7.29356C139.286 7.04438 139.124 6.78417 139.005 6.56781L138.917 6.616L138.83 6.66419C138.953 6.88783 139.12 7.15562 139.31 7.41244L139.39 7.353ZM138.917 6.616V6.516H138.873V6.616V6.716H138.917V6.616ZM138.873 6.616H138.773V11.5H138.873H138.973V6.616H138.873ZM138.873 11.5V11.4H137.85V11.5V11.6H138.873V11.5ZM137.85 11.5H137.95V4.966H137.85H137.75V11.5H137.85ZM137.85 4.966V5.066H138.895V4.966V4.866H137.85V4.966ZM138.895 4.966L138.814 5.02427L141.685 9.02827L141.766 8.97L141.847 8.91173L138.976 4.90773L138.895 4.966ZM141.766 8.97L141.686 9.02944C141.871 9.27975 142.033 9.52897 142.152 9.74419L142.239 9.696L142.327 9.64781C142.203 9.42303 142.036 9.16625 141.847 8.91056L141.766 8.97ZM142.239 9.696V9.796H142.283V9.696V9.596H142.239V9.696ZM142.283 9.696H142.383V4.966H142.283H142.183V9.696H142.283ZM142.283 4.966V5.066H143.317V4.966V4.866H142.283V4.966Z" fill="#242424" mask="url(#path-1-outside-1_9491_124749)"/>
<rect width="122" height="1" transform="translate(20 15)" fill="url(#paint0_linear_9491_124749)"/>
<circle cx="8.04688" cy="8.75" r="8" fill="url(#paint1_linear_9491_124749)"/>
<path d="M11.9609 8.78238H7.92896V8.01401C7.92896 6.26272 9.34866 4.84302 11.1 4.84302H11.9609L11.9609 8.78238Z" fill="white"/>
<path d="M7.92969 12.6663H11.9617V11.727C11.9617 10.1007 10.5628 8.78238 8.8373 8.78238H7.92969V12.6663Z" fill="white"/>
<path d="M4.13672 8.78238H7.92798V9.61993C7.92798 11.3024 6.56409 12.6663 4.88165 12.6663H4.13672V8.78238Z" fill="white"/>
<path d="M7.92969 4.843H4.13843V8.78236H7.92969V4.843Z" fill="white"/>
<defs>
<linearGradient id="paint0_linear_9491_124749" x1="0" y1="0.5" x2="122" y2="0.5" gradientUnits="userSpaceOnUse">
<stop stop-color="#DE04F1"/>
<stop offset="0.5" stop-color="#F84F29"/>
<stop offset="1" stop-color="#FDA900"/>
</linearGradient>
<linearGradient id="paint1_linear_9491_124749" x1="0.327622" y1="0.890373" x2="16.0495" y2="16.6122" gradientUnits="userSpaceOnUse">
<stop stop-color="#FDB100"/>
<stop offset="0.480769" stop-color="#F00C72"/>
<stop offset="1" stop-color="#9C0AFF"/>
</linearGradient>
</defs>
</svg>
